<?xml version="1.0" encoding="UTF-8"?>
<svg version="1.1" xmlns="http://www.w3.org/2000/svg" width="742" height="482">
<path d="M0 0 C0.99 0.33 1.98 0.66 3 1 C4.84527819 1.09615182 6.69385039 1.13332497 8.54162598 1.13803101 C9.69415359 1.14348434 10.84668121 1.14893768 12.03413391 1.15455627 C13.29968613 1.1555986 14.56523834 1.15664093 15.86914062 1.15771484 C17.2144538 1.16238366 18.55976539 1.16752734 19.90507507 1.17311096 C22.80249381 1.18438713 25.69990229 1.19282349 28.59733582 1.19923019 C33.17711218 1.20990831 37.75681464 1.23015131 42.33654785 1.25234985 C55.35958483 1.31428478 68.38261699 1.36832933 81.40576172 1.40136719 C88.59798985 1.41969296 95.79009379 1.44859988 102.98223066 1.4893719 C106.78907354 1.51047049 110.59575975 1.52590322 114.40266418 1.52817917 C117.98143791 1.53032135 121.55988502 1.546146 125.13855934 1.57256889 C127.0809658 1.58322244 129.02343589 1.57900056 130.96586609 1.5743866 C132.11839371 1.58547958 133.27092133 1.59657257 134.45837402 1.60800171 C135.4619973 1.61131186 136.46562057 1.614622 137.49965668 1.61803246 C140 2 140 2 141.80728912 3.29793739 C143.67311646 5.96057341 143.6472646 8.82538141 144 12 C144.33 12.33 144.66 12.66 145 13 C146.3730889 18.59962819 147.18545397 24.29817782 148 30 C148.33 30.99 148.66 31.98 149 33 C149.30239035 35.86430864 149.50765769 38.72919934 149.71875 41.6015625 C149.74285593 43.94950291 149.74285593 43.94950291 151 45 C151.18711622 46.82958082 151.32393293 48.66438539 151.4375 50.5 C151.84288047 55.83962091 152.65454847 60.82594742 154 66 C154.1546875 66.68449219 154.309375 67.36898437 154.46875 68.07421875 C154.95266721 70.20400186 154.95266721 70.20400186 156 73 C156.99 73.33 157.98 73.66 159 74 C159.33 72.68 159.66 71.36 160 70 C161.65 70 163.3 70 165 70 C165.33 68.68 165.66 67.36 166 66 C167.11375 65.7834375 167.11375 65.7834375 168.25 65.5625 C170.52027739 65.09812508 172.75759479 64.58136431 175 64 C175 63.34 175 62.68 175 62 C176.7578125 61.0234375 178.515625 60.046875 180.2734375 59.0703125 C182.1612614 57.99102726 182.1612614 57.99102726 184 56 C186.31765729 55.28072705 188.65095874 54.6090107 191 54 C191 53.34 191 52.68 191 52 C192.32 52 193.64 52 195 52 C195.33 50.68 195.66 49.36 196 48 C197.65 48 199.3 48 201 48 C201.33 47.01 201.66 46.02 202 45 C204.84937793 43.16825705 207.68437443 42.55260426 211 42 C211 41.34 211 40.68 211 40 C212.64453125 38.52734375 212.64453125 38.52734375 214.8125 36.9375 C215.87404297 36.14666016 215.87404297 36.14666016 216.95703125 35.33984375 C219 34 219 34 222 33 C222.66 32.01 223.32 31.02 224 30 C225.66014616 29.63557767 227.32706064 29.30027117 229 29 C229.33 28.34 229.66 27.68 230 27 C233.81312925 24.74678726 236.55578397 23.60786329 241 24 C241.06316406 23.23042969 241.12632812 22.46085937 241.19140625 21.66796875 C242 19 242 19 244.21484375 17.48828125 C245.11332031 17.10027344 246.01179688 16.71226563 246.9375 16.3125 C250.79199849 14.63994284 250.79199849 14.63994284 254 12 C256.625 11.875 256.625 11.875 259 12 C259.66 10.68 260.32 9.36 261 8 C262.32 8 263.64 8 265 8 C265.33 7.01 265.66 6.02 266 5 C267.65204456 4.29788106 269.31923769 3.63028587 271 3 C271.33 2.34 271.66 1.68 272 1 C289.59402991 0.97661532 307.18805496 0.95899348 324.78209686 0.94818783 C332.95174174 0.9430367 341.12137695 0.93601657 349.29101562 0.92456055 C356.41361386 0.91457754 363.5362051 0.90813796 370.65881014 0.90591151 C374.42838693 0.90461054 378.19794368 0.90156363 381.96751404 0.89426994 C385.51986419 0.88745263 389.07218616 0.88539461 392.62454224 0.88689232 C394.54099895 0.8864886 396.45745263 0.88112328 398.37390137 0.87557983 C404.34717869 0.88268716 410.09509005 1.07980054 416 2 C416 6.12714213 415.60013805 7.12895007 413.5625 10.5 C411.85686866 13.33785955 410.64435389 15.74119872 410 19 C409.01 19 408.02 19 407 19 C406.34 20.65 405.68 22.3 405 24 C404.34 24 403.68 24 403 24 C402.9175 24.515625 402.835 25.03125 402.75 25.5625 C401.19027757 30.6315979 398.1447678 34.80697627 395 39 C394.67 39.99 394.34 40.98 394 42 C391.4375 43.1875 391.4375 43.1875 389 44 C389.12375 45.0828125 389.12375 45.0828125 389.25 46.1875 C388.92256852 49.87110419 387.53906064 51.38626111 385 54 C384.34 54 383.68 54 383 54 C382.67 55.65 382.34 57.3 382 59 C380.515 59.495 380.515 59.495 379 60 C379 60.66 379 61.32 379 62 C378.34 62 377.68 62 377 62 C377.1546875 63.0828125 377.1546875 63.0828125 377.3125 64.1875 C376.87577315 68.11804163 374.78070097 69.2855062 372 72 C370.66436389 75.16701423 370.66436389 75.16701423 370 78 C369.01 78 368.02 78 367 78 C367 78.66 367 79.32 367 80 C366.34 80 365.68 80 365 80 C365 81.32 365 82.64 365 84 C364.34 84 363.68 84 363 84 C362.34 85.98 361.68 87.96 361 90 C360.34 90 359.68 90 359 90 C358.67 91.65 358.34 93.3 358 95 C356.515 95.495 356.515 95.495 355 96 C355 96.66 355 97.32 355 98 C354.34 98 353.68 98 353 98 C352.731875 98.928125 352.46375 99.85625 352.1875 100.8125 C351.00217108 103.99417235 350.27998114 104.72001886 348 107 C347.0585702 108.53545874 346.16365136 110.10021774 345.3125 111.6875 C344.87550781 112.49574219 344.43851563 113.30398437 343.98828125 114.13671875 C343.66214844 114.75160156 343.33601562 115.36648437 343 116 C342.34 116 341.68 116 341 116 C340.34 117.98 339.68 119.96 339 122 C338.34 122 337.68 122 337 122 C336.731875 123.11375 336.46375 124.2275 336.1875 125.375 C335 129 335 129 332 131 C331.30341637 132.65438613 330.63903117 134.32254318 330 136 C328.5 138.3125 328.5 138.3125 327 140 C326.34 140 325.68 140 325 140 C324.67 142.31 324.34 144.62 324 147 C322.35 147.33 320.7 147.66 319 148 C319.103125 148.721875 319.20625 149.44375 319.3125 150.1875 C318.87340412 154.13936288 316.88369891 155.39093908 314 158 C312.0549 160.91765 311.54723683 162.62537285 311 166 C309.68 166 308.36 166 307 166 C307.185625 167.0209375 307.185625 167.0209375 307.375 168.0625 C306.8766184 171.9664892 305.07216445 173.56998419 302.41015625 176.3515625 C300.77172622 178.0575008 300.77172622 178.0575008 300 181 C299.34 181 298.68 181 298 181 C297.67 181.99 297.34 182.98 297 184 C296.34 184 295.68 184 295 184 C294.9071875 185.0209375 294.9071875 185.0209375 294.8125 186.0625 C293.86775852 189.4781038 292.32299563 191.55583237 290.2109375 194.3515625 C288.89565238 196.14204741 287.89440904 197.96725218 287 200 C286.34 200 285.68 200 285 200 C285 200.66 285 201.32 285 202 C284.34 202 283.68 202 283 202 C282.855625 202.928125 282.71125 203.85625 282.5625 204.8125 C281.1393341 209.99537285 277.43612623 213.65409357 273.99609375 217.64453125 C271.98918851 219.82406182 271.98918851 219.82406182 271 222 C270.34 222 269.68 222 269 222 C268.9175 222.70125 268.835 223.4025 268.75 224.125 C267.82861136 227.65698979 266.07354186 230.01928357 264 233 C263.67 233.99 263.34 234.98 263 236 C262.34 236.33 261.68 236.66 261 237 C260.27840576 238.64363134 259.60648579 240.31050386 259 242 C258.34 242 257.68 242 257 242 C257 242.66 257 243.32 257 244 C256.34 244 255.68 244 255 244 C254.87625 244.53625 254.7525 245.0725 254.625 245.625 C253.87793984 248.4638286 252.94696636 251.22223202 252 254 C251.01 254 250.02 254 249 254 C248.67 255.32 248.34 256.64 248 258 C247.01 258 246.02 258 245 258 C244.896875 258.556875 244.79375 259.11375 244.6875 259.6875 C243.53744866 263.55585452 241.22354164 266.66468754 239 270 C238.34 270 237.68 270 237 270 C236.67 271.65 236.34 273.3 236 275 C235.01 275.33 234.02 275.66 233 276 C231.97718482 278.09719872 231.97718482 278.09719872 231.3125 280.5625 C231.06113281 281.38878906 230.80976563 282.21507812 230.55078125 283.06640625 C230.36902344 283.70449219 230.18726563 284.34257812 230 285 C229.34 285 228.68 285 228 285 C227.67 285.99 227.34 286.98 227 288 C226.34 288 225.68 288 225 288 C225 289.65 225 291.3 225 293 C223.68 293.33 222.36 293.66 221 294 C220.87625 294.515625 220.7525 295.03125 220.625 295.5625 C219.81358372 298.72702351 218.9054087 301.86124985 218 305 C216.35 305.33 214.7 305.66 213 306 C213 307.65 213 309.3 213 311 C211.68 311.33 210.36 311.66 209 312 C208.67 313.65 208.34 315.3 208 317 C202.57961527 317.97008872 197.67635358 317.95131238 192.19921875 317.55273438 C183.50613303 317.01130738 174.8912293 316.93959018 166.18591309 317.11003113 C163.71548208 317.15813929 161.24502768 317.19747705 158.77441406 317.23498535 C152.63873165 317.32972671 146.50330006 317.43769203 140.36785889 317.54681396 C103.63663617 318.19743102 103.63663617 318.19743102 87.25 317.78125 C86.14946289 317.76525757 85.04892578 317.74926514 83.91503906 317.73278809 C76.65721058 317.47881096 76.65721058 317.47881096 73.359375 315.07617188 C71.00648482 311.48260541 70.82424794 309.30592544 71 305 C71.33 304.01 71.66 303.02 72 302 C71.67 301.67 71.34 301.34 71 301 C70.85884839 298.32941149 70.95752893 295.67567762 71 293 C70.01 293 69.02 293 68 293 C67.11395187 286.67108477 66.66370784 280.35541293 66.28125 273.9765625 C66.18779053 271.07467069 66.18779053 271.07467069 65 269 C64.82251866 267.56606347 64.68108853 266.1275036 64.5625 264.6875 C64.20691448 261.09723334 63.35602588 258.34486383 62 255 C61.875 251.6875 61.875 251.6875 62 249 C60.56274129 248.83126522 59.12518162 248.66509263 57.6875 248.5 C56.88699219 248.4071875 56.08648437 248.314375 55.26171875 248.21875 C52.88103445 247.95186537 52.88103445 247.95186537 50 248 C50 248.99 50 249.98 50 251 C49.401875 251.12375 48.80375 251.2475 48.1875 251.375 C45.73768652 251.95475985 45.73768652 251.95475985 43 254 C41.68 254 40.36 254 39 254 C38.67 255.32 38.34 256.64 38 258 C36.8553125 258.0928125 36.8553125 258.0928125 35.6875 258.1875 C34.3571875 258.5896875 34.3571875 258.5896875 33 259 C32.566875 259.825 32.13375 260.65 31.6875 261.5 C31.130625 262.325 30.57375 263.15 30 264 C28.04802803 264.26026293 26.09105678 264.50905743 24.125 264.62109375 C20.9634091 265.1848333 19.03770518 266.88759726 16.640625 268.94140625 C15 270 15 270 11 270 C11 270.66 11 271.32 11 272 C7.37443765 275.62556235 3.70406116 276.93428742 -1.109375 278.2890625 C-3.19827807 278.83006667 -3.19827807 278.83006667 -4 281 C-10.23076923 284 -10.23076923 284 -14 284 C-14 284.99 -14 285.98 -14 287 C-16.31 287.33 -18.62 287.66 -21 288 C-21 288.66 -21 289.32 -21 290 C-22.32 290 -23.64 290 -25 290 C-25.33 291.32 -25.66 292.64 -26 294 C-26.763125 294.103125 -27.52625 294.20625 -28.3125 294.3125 C-31.27011154 295.0690983 -31.99230999 295.81772825 -34 298 C-37.08771148 299.95555061 -39.37314539 300.20149192 -43 300 C-43.33 301.65 -43.66 303.3 -44 305 C-46.97 305.33 -49.94 305.66 -53 306 C-53 306.66 -53 307.32 -53 308 C-53.99 308 -54.98 308 -56 308 C-56.33 309.32 -56.66 310.64 -57 312 C-57.78375 312.103125 -58.5675 312.20625 -59.375 312.3125 C-62.33045181 312.77595022 -62.33045181 312.77595022 -64 316 C-66.3125 316.625 -66.3125 316.625 -69 317 C-69.804375 317.20625 -70.60875 317.4125 -71.4375 317.625 C-74 318 -74 318 -76.44554138 317.53152466 C-81.44856037 316.78338598 -86.38206784 316.86108375 -91.43383789 316.87060547 C-92.57760391 316.86885315 -93.72136993 316.86710083 -94.89979553 316.86529541 C-98.67409795 316.86090022 -102.44835337 316.86380652 -106.22265625 316.8671875 C-108.84769195 316.86651384 -111.47272758 316.86554329 -114.09776306 316.86428833 C-119.5961864 316.8624716 -125.09459628 316.8648602 -130.59301758 316.86962891 C-136.9437105 316.87507328 -143.29437132 316.8733056 -149.64506346 316.8678025 C-155.76396933 316.86271316 -161.882861 316.86325755 -168.00176811 316.86618423 C-170.60171958 316.86685163 -173.20167187 316.86603161 -175.80162239 316.86370468 C-179.43295595 316.86116769 -183.06422769 316.86503351 -186.69555664 316.87060547 C-187.77154114 316.86858124 -188.84752563 316.86655701 -189.95611572 316.86447144 C-190.94718826 316.86729126 -191.9382608 316.87011108 -192.95936584 316.87301636 C-193.81713655 316.87339338 -194.67490725 316.87377041 -195.558671 316.87415886 C-198.03997917 316.94245724 -198.03997917 316.94245724 -200.58847713 317.51965523 C-203.99323403 318.19783962 -206.63962264 317.80897973 -210 317 C-212 315.125 -212 315.125 -213 313 C-212.67 312.01 -212.34 311.02 -212 310 C-211.01 310 -210.02 310 -209 310 C-208.9175 308.948125 -208.835 307.89625 -208.75 306.8125 C-207.94347778 302.71267873 -206.92278322 300.92278322 -204 298 C-203.34 298 -202.68 298 -202 298 C-201.67 296.35 -201.34 294.7 -201 293 C-199.68 292.67 -198.36 292.34 -197 292 C-196.89171875 291.29230469 -196.7834375 290.58460938 -196.671875 289.85546875 C-195.92578334 286.68457921 -194.77284686 284.18942462 -193.25 281.3125 C-192.76015625 280.35988281 -192.2703125 279.40726562 -191.765625 278.42578125 C-189.73696276 275.63861477 -188.26341572 274.94905457 -185 274 C-184.67 271.69 -184.34 269.38 -184 267 C-183.34 267 -182.68 267 -182 267 C-181.67 266.01 -181.34 265.02 -181 264 C-180.34 264 -179.68 264 -179 264 C-179 262.35 -179 260.7 -179 259 C-177.68 258.67 -176.36 258.34 -175 258 C-175 257.34 -175 256.68 -175 256 C-174.34 256 -173.68 256 -173 256 C-173 254.35 -173 252.7 -173 251 C-172.01 250.67 -171.02 250.34 -170 250 C-169.26676204 247.98491642 -169.26676204 247.98491642 -169 246 C-168.34 246 -167.68 246 -167 246 C-167 244.35 -167 242.7 -167 241 C-165.68 240.67 -164.36 240.34 -163 240 C-163 239.34 -163 238.68 -163 238 C-162.34 238 -161.68 238 -161 238 C-160.67 236.35 -160.34 234.7 -160 233 C-159.01 232.67 -158.02 232.34 -157 232 C-157 230.68 -157 229.36 -157 228 C-156.34 228 -155.68 228 -155 228 C-155 226.35 -155 224.7 -155 223 C-154.38125 222.95875 -153.7625 222.9175 -153.125 222.875 C-152.073125 222.441875 -152.073125 222.441875 -151 222 C-150.32060826 220.00428677 -149.65438441 218.00405227 -149 216 C-147.67479497 215.31731862 -146.34187818 214.6492959 -145 214 C-144.39397335 211.63804589 -144.39397335 211.63804589 -144 209 C-142.5625 206.1875 -142.5625 206.1875 -141 204 C-140.34 204 -139.68 204 -139 204 C-138.814375 202.8553125 -138.814375 202.8553125 -138.625 201.6875 C-138 199 -138 199 -136 196 C-135.01 196 -134.02 196 -133 196 C-132.87625 195.4225 -132.7525 194.845 -132.625 194.25 C-131.98583433 191.94900359 -131.20694364 190.05890385 -130 188 C-129.34 187.67 -128.68 187.34 -128 187 C-127.32558869 185.3364521 -126.6599679 183.66933058 -126 182 C-124.5 179.6875 -124.5 179.6875 -123 178 C-122.34 178 -121.68 178 -121 178 C-120.34 175.69 -119.68 173.38 -119 171 C-117.68 170.67 -116.36 170.34 -115 170 C-115.103125 169.29875 -115.20625 168.5975 -115.3125 167.875 C-114.87006558 163.80460335 -112.6550611 162.03435554 -110 159 C-109.28837557 157.35202764 -108.60968047 155.68834592 -108 154 C-107.34 153.34 -106.68 152.68 -106 152 C-105.01 152 -104.02 152 -103 152 C-103.103125 151.29875 -103.20625 150.5975 -103.3125 149.875 C-102.9423169 146.46931548 -101.64205781 145.0351958 -99.3671875 142.5546875 C-97.7531627 140.79787566 -97.7531627 140.79787566 -95.875 137.6875 C-94 135 -94 135 -91 134 C-91.103125 133.278125 -91.20625 132.55625 -91.3125 131.8125 C-90.87494611 127.87451498 -88.81407234 126.6800689 -86 124 C-85.32033324 122.33859237 -84.65061095 120.67299959 -84 119 C-83.01 118.67 -82.02 118.34 -81 118 C-80.29289322 116.35008418 -79.63437344 114.6792238 -79 113 C-77.70672372 110.97386717 -76.3703055 108.97485205 -75 107 C-74.29875 105.9275 -73.5975 104.855 -72.875 103.75 C-71 101 -71 101 -69 99 C-68.29289322 97.35008418 -67.62056011 95.68437744 -67 94 C-66.34 94 -65.68 94 -65 94 C-64.8453125 93.1646875 -64.8453125 93.1646875 -64.6875 92.3125 C-63.86798993 89.55596614 -62.50303883 87.4424381 -61 85 C-60.67 84.01 -60.34 83.02 -60 82 C-59.01 82 -58.02 82 -57 82 C-56.8453125 80.8553125 -56.8453125 80.8553125 -56.6875 79.6875 C-55.95288806 76.81583516 -55.3283935 75.76957906 -53 74 C-52.34 74 -51.68 74 -51 74 C-50.855625 73.38125 -50.71125 72.7625 -50.5625 72.125 C-50 70 -50 70 -49 68 C-48.34 68 -47.68 68 -47 68 C-46.6596875 66.14375 -46.6596875 66.14375 -46.3125 64.25 C-45.26266729 59.97568109 -43.55961474 58.60459615 -40 56 C-39.484375 54.96875 -38.96875 53.9375 -38.4375 52.875 C-36.91183072 49.82366144 -36.15077861 49.08647538 -33 48 C-33.0825 47.236875 -33.165 46.47375 -33.25 45.6875 C-33 43 -33 43 -31.125 41.1875 C-29 40 -29 40 -27 40 C-26.8453125 38.3603125 -26.8453125 38.3603125 -26.6875 36.6875 C-26 33 -26 33 -24.5625 31.0625 C-23 30 -23 30 -21 30 C-21 28.35 -21 26.7 -21 25 C-19.02 24.505 -19.02 24.505 -17 24 C-16.814375 23.1646875 -16.814375 23.1646875 -16.625 22.3125 C-15.6096761 18.55580157 -14.78000022 15.75636385 -11.9375 13 C-9.68126115 10.67097925 -9.35237585 9.17138267 -9 6 C-7.68 6 -6.36 6 -5 6 C-4.731875 5.38125 -4.46375 4.7625 -4.1875 4.125 C-3 2 -3 2 0 0 Z M157 84 C157 85.98 157 87.96 157 90 C157.66 90 158.32 90 159 90 C159.59981757 94.54147587 160.08756778 99.05713472 160.4375 103.625 C160.79218023 107.70100772 161.53649588 111.15830167 163 115 C163.34153937 116.66500443 163.67449498 118.33178677 164 120 C164.33 120.969375 164.66 121.93875 165 122.9375 C166.42969193 127.71014805 166.43756661 132.6499445 166.65625 137.59765625 C167.00004005 141.00039638 167.7958974 143.81009916 169 147 C169.33 146.34 169.66 145.68 170 145 C171.32 145.33 172.64 145.66 174 146 C174 145.01 174 144.02 174 143 C174.66 143 175.32 143 176 143 C176.226875 142.071875 176.45375 141.14375 176.6875 140.1875 C178 137 178 137 180.375 135.625 C183.72169857 133.55323422 184.50379693 131.43568574 186.08984375 127.9296875 C187.13350652 125.71694326 188.502236 123.92569657 190 122 C190.33 121.01 190.66 120.02 191 119 C191.66 118.67 192.32 118.34 193 118 C193 117.34 193 116.68 193 116 C193.66 116 194.32 116 195 116 C195.433125 114.88625 195.86625 113.7725 196.3125 112.625 C198 109 198 109 201 107 C201.67441131 105.3364521 202.3400321 103.66933058 203 102 C204.28667172 100.29705213 205.61096733 98.62053812 207 97 C206.505 96.01 206.505 96.01 206 95 C206.928125 94.5978125 206.928125 94.5978125 207.875 94.1875 C210.2995233 93.04443152 210.2995233 93.04443152 212 90 C212 88.02 212 86.04 212 84 C193.85 84 175.7 84 157 84 Z M169 149 C169 149.99 169 150.98 169 152 C169.66 152 170.32 152 171 152 C171 151.01 171 150.02 171 149 C170.34 149 169.68 149 169 149 Z M39 158 C38.566875 159.134375 38.13375 160.26875 37.6875 161.4375 C37.130625 162.613125 36.57375 163.78875 36 165 C35.01 165.33 34.02 165.66 33 166 C32.67 167.65 32.34 169.3 32 171 C31.01 171.33 30.02 171.66 29 172 C29 172.66 29 173.32 29 174 C28.34 174 27.68 174 27 174 C26.81824219 174.63808594 26.63648438 175.27617187 26.44921875 175.93359375 C26.19785156 176.75988281 25.94648438 177.58617187 25.6875 178.4375 C25.44386719 179.26121094 25.20023438 180.08492187 24.94921875 180.93359375 C24.63597656 181.61550781 24.32273437 182.29742187 24 183 C23.01 183.33 22.02 183.66 21 184 C17.68588086 187.45076717 17.68588086 187.45076717 17 192 C16.34 192 15.68 192 15 192 C14.32845067 193.28913487 13.66291141 194.58140204 13 195.875 C12.62875 196.59429687 12.2575 197.31359375 11.875 198.0546875 C10.86326254 199.94848977 10.86326254 199.94848977 11 202 C10.34 202 9.68 202 9 202 C8.67 203.65 8.34 205.3 8 207 C7.01 207 6.02 207 5 207 C5 207.99 5 208.98 5 210 C4.34 210 3.68 210 3 210 C2.15615325 211.41042956 1.32530504 212.82864132 0.5 214.25 C0.0359375 215.03890625 -0.428125 215.8278125 -0.90625 216.640625 C-2.28038776 219.17140893 -2.28038776 219.17140893 -2 223 C-2.5775 223.04125 -3.155 223.0825 -3.75 223.125 C-7.16879475 224.45453129 -8.22666645 226.89666629 -10 230 C-10 230.66 -10 231.32 -10 232 C-9.34 232.33 -8.68 232.66 -8 233 C-8 233.99 -8 234.98 -8 236 C-7.29955566 235.96970703 -6.59911133 235.93941406 -5.87744141 235.90820312 C10.77079335 235.20971337 27.36518561 234.8952256 44.02685547 235.03710938 C45.08142693 235.04345398 45.08142693 235.04345398 46.15730286 235.04992676 C48.06656831 235.06172835 49.97579432 235.07948406 51.88500977 235.09765625 C54.47449187 235.0164749 56.54639062 234.77310192 59 234 C59 231.69 59 229.38 59 227 C58.01 227 57.02 227 56 227 C56.01160156 226.29875 56.02320313 225.5975 56.03515625 224.875 C56.0896562 219.1447199 55.94292701 213.65756206 55 208 C54.67 207.67 54.34 207.34 54 207 C53.7637353 203.78980023 53.60339698 200.58726128 53.48242188 197.37109375 C53.39075776 195.57586061 53.20240144 193.78614053 53 192 C52.01 191.505 52.01 191.505 51 191 C50.57036587 188.60717657 50.24863338 186.28766467 50 183.875 C49.42572017 178.69622655 48.45190303 173.99766621 47 169 C46.92596322 166.66784156 46.90484114 164.33139212 47 162 C46.34 162 45.68 162 45 162 C44.34 160.68 43.68 159.36 43 158 C41.68 158 40.36 158 39 158 Z M-13 234 C-13 234.66 -13 235.32 -13 236 C-12.01 235.67 -11.02 235.34 -10 235 C-10.99 234.67 -11.98 234.34 -13 234 Z " fill="#000000" transform="translate(264,109)"/>
<path d="M0 0 C0.66 0 1.32 0 2 0 C2 0.66 2 1.32 2 2 C1.34 2 0.68 2 0 2 C0 1.34 0 0.68 0 0 Z " fill="#000000" transform="translate(420,180)"/>
</svg>
